<svg xmlns="http://www.w3.org/2000/svg" viewBox="0 0 46.23 68.89"><g id="Layer_2" data-name="Layer 2"><g id="primary_logo" data-name="primary logo"><path d="M39.05,33.21c0-6.79-5.27-9.13-8.12-7.81,1.11-4.15,2.44-9,1.27-15.2S28.47.75,23.48.06c-6.94-1-2.32,9.22-5.77,17.61C15.86,5.45,10.36,1.75,6.16,1.38S-1.43,2.8.62,9.84c1.92,6.59,4.79,15.72,1.84,26.08-5.1,17.89,2.37,34.81,22.65,32.81,18.75-1.85,20.23-21.83,20.94-27C46.92,35.39,44.65,31.85,39.05,33.21Zm1.81,18.87a22.22,22.22,0,0,1-7.73,10.61c-4.31,3-9.23,4-15.37,2.44S8.89,57.6,16.38,50.71c4.87-4.47,4.95-13.61.39-12.2C12.46,39.84,8,48.09,5.44,45.78c-2.28-2.09-.3-6.28.26-9.5C8,23.4,5.2,14,3.16,7.56,1.83,3.35,9.26,3.09,12,8.9c2.52,5.33,3.47,13.16,3.6,19.85.06,3.2,1.44,1.8,2.24-.83.45-1.5,4.39-13.63,3.84-21.9C21.32.56,28.46,2.47,29.55,10c1.33,9.1-2.34,15.58-3.19,20.52-.36,2.05,1.53.78,2.61-.66,2.3-3.07,2.6.91-4.11,9.31-3,3.74-2.4,6.23.1,8.58,3.34,3.15,5.31-.42,7.37-3.16a34,34,0,0,0,4.13-7.4c.93-2.26,2.42-.78,1.46,1.78-.87,2.34-3.51,6.56-6.51,10.33-1.61,2-.42,4.1,1.84,5.1,2.59,1.15,4.81.19,7-2.73C40.76,50.86,41.31,50.89,40.86,52.08Z" style="fill:#fff"/></g></g></svg>