<?xml version="1.0" encoding="utf-8"?>
<!-- Generator: Adobe Illustrator 25.0.1, SVG Export Plug-In . SVG Version: 6.00 Build 0)  -->
<svg version="1.1" id="bb3bfac7-5d5b-4047-9b9c-dc60ee6ed405"
	 xmlns="http://www.w3.org/2000/svg" xmlns:xlink="http://www.w3.org/1999/xlink" x="0px" y="0px" viewBox="0 0 1146 791"
	 style="enable-background:new 0 0 1146 791;" xml:space="preserve">
<style type="text/css">
	.st0{opacity:0.6;}
	.st1{fill:#36334A;}
	.st2{opacity:0.2;fill:#6C63FF;enable-background:new    ;}
	.st3{fill:#6C63FF;}
	.st4{opacity:0.3;fill:#6C63FF;enable-background:new    ;}
	.st5{fill:#3F3D56;}
	.st6{opacity:0.1;enable-background:new    ;}
	.st7{fill:none;stroke:#3F3D56;stroke-width:4;stroke-miterlimit:10;}
	.st8{fill:#57B894;}
	.st9{fill:#656380;}
	.st10{opacity:0.2;enable-background:new    ;}
	.st11{fill:#FFFFFF;}
	.st12{fill:#FBBEBE;}
	.st13{fill:#FF6584;}
	.st14{fill:#F2F2F2;}
</style>
<g class="st0">
	<path class="st1" d="M175.4,357.8l3-136.4c0.1-4.1,3.2-7.5,7.3-7.9c64.5-6.1,129.5-6.1,194.1,0c4.1,0.4,7.3,3.8,7.3,8v136.4
		c0,4.3-3.4,7.8-7.7,8c-66.9,3.1-132.4,3.3-196.4,0C178.7,365.8,175.3,362.2,175.4,357.8z"/>
	<path class="st1" d="M175.4,357.8l3-136.4c0.1-4.1,3.2-7.5,7.3-7.9c64.5-6.1,129.5-6.1,194.1,0c4.1,0.4,7.3,3.8,7.3,8v136.4
		c0,4.3-3.4,7.8-7.7,8c-66.9,3.1-132.4,3.3-196.4,0C178.7,365.8,175.3,362.2,175.4,357.8z"/>
	<path class="st2" d="M175.4,357.8l3-136.4c0.1-4.1,3.2-7.5,7.3-7.9c64.5-6.1,129.5-6.1,194.1,0c4.1,0.4,7.3,3.8,7.3,8v136.4
		c0,4.3-3.4,7.8-7.7,8c-66.9,3.1-132.4,3.3-196.4,0C178.7,365.8,175.3,362.2,175.4,357.8z"/>
	<path class="st3" d="M199.8,238.5h69.5c1.2,0,2.2,1,2.2,2.2v12.5c0,1.2-1,2.2-2.2,2.2h-69.5c-1.2,0-2.2-1-2.2-2.2v-12.5
		C197.5,239.5,198.5,238.5,199.8,238.5z"/>
	<path class="st4" d="M200.2,268h164.5c1.2,0,2.2,1,2.2,2.2v3.5c0,1.2-1,2.2-2.2,2.2H200.2c-1.2,0-2.2-1-2.2-2.2v-3.5
		C198,269,199,268,200.2,268z"/>
	<path class="st4" d="M200.2,289h164.5c1.2,0,2.2,1,2.2,2.2v3.5c0,1.2-1,2.2-2.2,2.2H200.2c-1.2,0-2.2-1-2.2-2.2v-3.5
		C198,290,199,289,200.2,289z"/>
	<path class="st4" d="M200.2,310h107.5c1.2,0,2.2,1,2.2,2.2v3.5c0,1.2-1,2.2-2.2,2.2H200.2c-1.2,0-2.2-1-2.2-2.2v-3.5
		C198,311,199,310,200.2,310z"/>
</g>
<g class="st0">
	<path class="st1" d="M664.4,148.8l3-136.4c0.1-4.1,3.2-7.5,7.3-7.8c64.5-6.1,129.5-6.1,194.1,0c4.1,0.4,7.3,3.8,7.3,8V149
		c0,4.3-3.4,7.8-7.7,8c-66.9,3.1-132.4,3.3-196.4,0C667.7,156.7,664.3,153.2,664.4,148.8z"/>
	<path class="st1" d="M664.4,148.8l3-136.4c0.1-4.1,3.2-7.5,7.3-7.8c64.5-6.1,129.5-6.1,194.1,0c4.1,0.4,7.3,3.8,7.3,8V149
		c0,4.3-3.4,7.8-7.7,8c-66.9,3.1-132.4,3.3-196.4,0C667.7,156.7,664.3,153.2,664.4,148.8z"/>
	<path class="st2" d="M664.4,148.8l3-136.4c0.1-4.1,3.2-7.5,7.3-7.8c64.5-6.1,129.5-6.1,194.1,0c4.1,0.4,7.3,3.8,7.3,8V149
		c0,4.3-3.4,7.8-7.7,8c-66.9,3.1-132.4,3.3-196.4,0C667.7,156.7,664.3,153.2,664.4,148.8z"/>
	<path class="st3" d="M688.8,29.5h69.5c1.2,0,2.2,1,2.2,2.2v12.5c0,1.2-1,2.2-2.2,2.2h-69.5c-1.2,0-2.2-1-2.2-2.2V31.7
		C686.5,30.5,687.5,29.5,688.8,29.5z"/>
	<path class="st4" d="M689.2,59h164.5c1.2,0,2.2,1,2.2,2.2v3.5c0,1.2-1,2.2-2.2,2.2H689.2c-1.2,0-2.2-1-2.2-2.2v-3.5
		C687,60,688,59,689.2,59z"/>
	<path class="st4" d="M689.2,80h164.5c1.2,0,2.2,1,2.2,2.2v3.5c0,1.2-1,2.2-2.2,2.2H689.2c-1.2,0-2.2-1-2.2-2.2v-3.5
		C687,81,688,80,689.2,80z"/>
	<path class="st4" d="M689.2,101h107.5c1.2,0,2.2,1,2.2,2.2v3.5c0,1.2-1,2.2-2.2,2.2H689.2c-1.2,0-2.2-1-2.2-2.2v-3.5
		C687,102,688,101,689.2,101z"/>
</g>
<path class="st5" d="M1146,687.5c0,9.5-7.1,18.7-20.3,27.4c-9.5,6.2-22.1,12.2-37.5,17.9c-44,16.3-110.9,30.2-193.2,40.3
	c-6.9,0.8-14,1.7-21.1,2.5C786.5,785.3,683.4,791,573,791C256.5,791,0,744.6,0,687.5S256.5,584,573,584S1146,630.3,1146,687.5z"/>
<ellipse class="st6" cx="541" cy="717" rx="210" ry="42"/>
<path class="st6" d="M1082,651.5c0,23.2-74,42.5-190,42.5s-210-18.8-210-42s94-42,210-42S1082,628.3,1082,651.5z"/>
<path class="st6" d="M1122.7,713.5c-8.8,6.7-20.4,13.2-34.5,19.3c-44,16.3-110.9,30.2-193.2,40.3c-6.9,0.8-14,1.7-21.1,2.5
	C853.1,769,841,761.3,841,753c0-23.2,94-42,210-42C1076.2,711,1100.3,711.9,1122.7,713.5z"/>
<path class="st5" d="M714.9,192h5.7c1.3,0,2.3,1,2.3,2.3v80.4c0,1.3-1,2.3-2.3,2.3h-5.7c-1.3,0-2.3-1-2.3-2.3v-80.4
	C712.6,193,713.6,192,714.9,192z"/>
<path class="st5" d="M371.3,125.4h2.8c0.8,0,1.5,0.7,1.5,1.5v25c0,0.8-0.7,1.5-1.5,1.5h-2.8c-0.8,0-1.5-0.7-1.5-1.5v-25
	C369.8,126.1,370.4,125.4,371.3,125.4z"/>
<path class="st5" d="M371.2,176.6h3.1c0.9,0,1.7,0.8,1.7,1.7v45.3c0,0.9-0.8,1.7-1.7,1.7h-3.1c-0.9,0-1.7-0.8-1.7-1.7v-45.3
	C369.5,177.4,370.3,176.6,371.2,176.6z"/>
<path class="st5" d="M371.3,242.4h3c0.9,0,1.6,0.7,1.6,1.6v45.9c0,0.9-0.7,1.6-1.6,1.6h-3c-0.9,0-1.6-0.7-1.6-1.6V244
	C369.6,243.1,370.4,242.4,371.3,242.4z"/>
<path class="st5" d="M408.7,32.9h273.7c19.7,0,35.7,16,35.7,35.7v630c0,19.7-16,35.7-35.7,35.7H408.7c-19.7,0-35.7-16-35.7-35.7
	v-630C373,48.9,389,32.9,408.7,32.9z"/>
<path class="st1" d="M514.8,53.8H558c1.4,0,2.5,1.1,2.5,2.5v4.7c0,1.4-1.1,2.5-2.5,2.5h-43.1c-1.4,0-2.5-1.1-2.5-2.5v-4.7
	C512.3,55,513.4,53.8,514.8,53.8z"/>
<circle class="st1" cx="573.3" cy="58.7" r="5.5"/>
<path class="st1" d="M696.8,78.6v610c0,15.1-12.3,27.4-27.4,27.4H421.8c-15.1,0-27.4-12.3-27.4-27.4v-610
	c0-15.1,12.3-27.4,27.4-27.4l0,0h37.1v4.8c0,12.5,10.1,22.6,22.6,22.6h126c12.5,0,22.6-10.1,22.6-22.6v0v-4.8h39.5
	C684.6,51.2,696.8,63.5,696.8,78.6z"/>
<rect x="403" y="109.5" class="st5" width="31" height="4"/>
<rect x="403" y="116.5" class="st5" width="31" height="4"/>
<rect x="403" y="123.5" class="st5" width="31" height="4"/>
<rect x="403" y="109.5" class="st5" width="31" height="4"/>
<rect x="403" y="116.5" class="st5" width="31" height="4"/>
<rect x="403" y="123.5" class="st5" width="31" height="4"/>
<path class="st5" d="M682.7,119.5h-0.9l-0.3-0.3c1.1-1.4,1.8-3.1,1.8-4.9c0-4.1-3.4-7.4-7.5-7.4c-4.1,0-7.4,3.4-7.4,7.5
	c0,4.1,3.4,7.4,7.5,7.4c1.8,0,3.5-0.6,4.9-1.8l0.3,0.3v0.9l5.7,5.8l1.7-1.7L682.7,119.5z M675.8,119.5c-2.9,0-5.2-2.3-5.2-5.2
	c0-2.9,2.3-5.2,5.2-5.2c2.9,0,5.2,2.3,5.2,5.2c0,0,0,0,0,0C681,117.2,678.7,119.5,675.8,119.5C675.8,119.5,675.8,119.5,675.8,119.5
	L675.8,119.5z"/>
<path class="st7" d="M35.6,676.6c3-5.5-0.4-12.3-4.3-17.2s-8.6-10-8.5-16.3c0.2-9,9.7-14.3,17.3-19.1c5.7-3.5,10.9-7.7,15.6-12.5
	c2-1.8,3.6-4,4.8-6.4c1.6-3.5,1.5-7.5,1.4-11.4c-0.3-12.9-1-25.7-1.9-38.5"/>
<path class="st8" d="M74.5,554.6c-0.2-4.8-2.9-9.1-7-11.5l-3.1,6.2l0.1-7.5c-1.5-0.4-3.1-0.6-4.6-0.6c-7.7,0.4-13.7,7-13.3,14.7
	c0.4,7.7,7,13.7,14.7,13.3C68.9,568.8,74.9,562.3,74.5,554.6L74.5,554.6z"/>
<path class="st8" d="M49.5,649.6c-3.5,6.9-12,9.6-18.9,6c-6.9-3.5-9.6-12-6-18.9c3.5-6.9,12-9.6,18.9-6c3.1,1.6,5.5,4.3,6.7,7.6
	l-8.8,7.1l9.6-2.2C51,645.4,50.5,647.6,49.5,649.6z"/>
<path class="st8" d="M42.6,622.3c-7.7,0.5-14.4-5.3-15-13c-0.5-6.8,3.9-12.9,10.5-14.6l-0.1,5.8l3.2-6.3l0,0
	c7.7-0.4,14.3,5.6,14.7,13.3c0,0,0,0,0,0.1c0.1,1.6-0.1,3.2-0.6,4.8C53.5,618.1,48.4,622.1,42.6,622.3z"/>
<path class="st8" d="M76.6,599.7c-7.7,0.3-14.2-5.7-14.5-13.5c-0.3-7.7,5.7-14.2,13.5-14.5c2.5-0.1,5,0.5,7.2,1.7l-2.5,6.8l5.1-4.9
	c2.7,2.5,4.4,6,4.5,9.7c0.1,1.3-0.1,2.6-0.3,3.9C88.2,595,82.9,599.4,76.6,599.7z"/>
<path class="st6" d="M72.6,558.3c-3.2,0.3-6.4,1.4-9.6,1.6s-6.8-0.6-8.9-3.1c-1.1-1.4-1.7-3.1-2.6-4.6c-0.9-1.4-2.1-2.5-3.5-3.3
	c-3.3,7-0.4,15.3,6.6,18.7c7,3.3,15.3,0.4,18.7-6.6c0.4-0.9,0.8-1.8,1-2.8C73.7,558.2,73.2,558.3,72.6,558.3z"/>
<path class="st6" d="M76.6,599.7c-7.7,0.4-14.3-5.6-14.7-13.3c-0.1-2.3,0.3-4.6,1.3-6.7c1.1,0.7,2.1,1.7,2.8,2.8
	c1,1.5,1.6,3.2,2.8,4.6c2.2,2.6,5.9,3.4,9.3,3.3s6.7-1.1,10-1.4c0.5,0,0.9-0.1,1.4-0.1C88.2,595,82.9,599.4,76.6,599.7z"/>
<path class="st6" d="M42.6,622.3c-7.7,0.4-14.3-5.6-14.7-13.3c-0.1-2.2,0.3-4.5,1.2-6.5c1.2,0.8,2.2,1.7,3,2.8
	c1.1,1.5,1.8,3.3,3,4.7c2.4,2.6,6.3,3.6,9.9,3.5s6.8-0.9,10.3-1.2C53.6,618.1,48.5,622.1,42.6,622.3z"/>
<path class="st6" d="M49.5,649.6c-3.2,7.1-11.5,10.2-18.5,7.1c-7.1-3.2-10.2-11.5-7.1-18.5c1.2,0.8,2.2,1.7,3.1,2.7
	c1.3,1.6,2.2,3.5,3.8,5c2.9,2.8,7.5,4,11.6,4.1C44.8,650,47.1,649.9,49.5,649.6z"/>
<path class="st9" d="M14.4,670.3c0,0,11.1-0.3,14.4-2.7s17-5.2,17.9-1.4s16.7,19,4.2,19.1s-29.1-2-32.4-4S14.4,670.3,14.4,670.3z"/>
<path class="st10" d="M51.1,683.9c-12.5,0.1-29.1-1.9-32.4-4c-2.5-1.5-3.5-7.1-3.9-9.7h-0.4c0,0,0.7,8.9,4,11s19.9,4.1,32.4,4
	c3.6,0,4.8-1.3,4.8-3.2C55.1,683.2,53.8,683.9,51.1,683.9z"/>
<path class="st7" d="M261.3,626.3c-4.7-8.8,0.6-19.5,6.8-27.4s13.7-16,13.6-26c-0.2-14.3-15.5-22.8-27.6-30.4
	c-9-5.6-17.3-12.3-24.8-19.9c-3-3-5.9-6.3-7.6-10.2c-2.5-5.6-2.4-12-2.3-18.1c0.5-20.5,1.5-40.9,3-61.3"/>
<path class="st8" d="M199.3,431.8c0.3-7.6,4.6-14.5,11.2-18.3l5,9.9l-0.1-12c11.8-3.5,24.3,3.3,27.8,15.1
	c3.5,11.8-3.3,24.3-15.1,27.8c-11.8,3.5-24.3-3.3-27.8-15.1C199.5,436.8,199.2,434.3,199.3,431.8L199.3,431.8z"/>
<path class="st8" d="M239.1,583.2c5.6,11,19.1,15.3,30.1,9.7s15.3-19.1,9.7-30.1c-5.6-11-19.1-15.3-30.1-9.7
	c-5,2.6-8.8,6.9-10.7,12.1l14,11.4l-15.4-3.6C236.7,576.5,237.5,580,239.1,583.2z"/>
<path class="st8" d="M250.2,539.8c12.3,0.6,22.8-9,23.4-21.3c0.5-10.4-6.3-19.7-16.3-22.6l0.1,9.2l-5.1-10h-0.1
	c-12.3-0.7-22.9,8.8-23.5,21.1s8.8,22.9,21.1,23.5C250,539.8,250.1,539.8,250.2,539.8L250.2,539.8z"/>
<path class="st8" d="M195.9,503.6c12.3,0.6,22.8-8.9,23.4-21.3c0.6-12.3-8.9-22.8-21.3-23.4c-4.2-0.2-8.4,0.8-12,2.8l4,10.8
	l-8.1-7.8c-9.1,8.4-9.7,22.5-1.4,31.6C184.5,500.8,190,503.4,195.9,503.6L195.9,503.6z"/>
<path class="st6" d="M202.3,437.8c5.2,0.6,10.2,2.2,15.4,2.5s10.9-0.9,14.1-5c1.8-2.2,2.6-4.9,4.1-7.3c1.4-2.2,3.3-4,5.6-5.3
	c5.6,11,1.2,24.5-9.8,30.1c-11,5.6-24.5,1.2-30.1-9.8c-0.9-1.7-1.5-3.5-1.9-5.4C200.6,437.6,201.4,437.7,202.3,437.8z"/>
<path class="st6" d="M195.9,503.6c12.3,0.6,22.8-9,23.4-21.3c0.2-3.6-0.6-7.3-2.1-10.6c-1.8,1.2-3.3,2.7-4.5,4.5
	c-1.6,2.4-2.6,5.2-4.4,7.4c-3.5,4.1-9.4,5.4-14.8,5.2s-10.6-1.8-16-2.3c-0.8-0.1-1.5-0.1-2.3-0.1
	C177.4,496.1,185.9,503.2,195.9,503.6z"/>
<path class="st6" d="M250.2,539.8c12.3,0.6,22.8-9,23.4-21.3c0.2-3.5-0.5-7-1.9-10.2c-1.8,1.2-3.4,2.8-4.7,4.5
	c-1.7,2.5-2.8,5.3-4.9,7.5c-3.8,4.2-10.1,5.7-15.8,5.5c-5.5-0.1-10.9-1.5-16.4-1.9C232.6,533,240.8,539.3,250.2,539.8z"/>
<path class="st6" d="M239.1,583.2c5.6,11,19.1,15.3,30.1,9.7c10.2-5.2,14.8-17.3,10.7-28c-1.8,1.2-3.5,2.7-4.9,4.4
	c-2.1,2.6-3.5,5.5-6,7.9c-4.6,4.5-12,6.3-18.5,6.5C246.7,583.8,242.9,583.6,239.1,583.2z"/>
<path class="st9" d="M295,616.2c0,0-17.6-0.5-23-4.3s-27.2-8.3-28.5-2.2S217,639.8,237,640s46.3-3.1,51.6-6.3S295,616.2,295,616.2z"
	/>
<path class="st10" d="M236.6,637.9c19.9,0.2,46.3-3.1,51.6-6.3c4-2.5,5.6-11.3,6.2-15.4h0.6c0,0-1.1,14.2-6.4,17.5
	s-31.7,6.5-51.6,6.3c-5.8,0-7.7-2.1-7.6-5.1C230.1,636.7,232.3,637.8,236.6,637.9z"/>
<path class="st4" d="M696.8,410.8v277.8c0,15.1-12.3,27.4-27.4,27.4H421.8c-15.1,0-27.4-12.3-27.4-27.4V411.3
	C494.8,424,596.4,423.8,696.8,410.8z"/>
<circle class="st4" cx="515" cy="354" r="4"/>
<circle class="st3" cx="533" cy="354" r="4"/>
<circle class="st4" cx="551" cy="354" r="4"/>
<circle class="st4" cx="569" cy="354" r="4"/>
<path class="st4" d="M440.4,303.8l3-136.4c0.1-4.1,3.2-7.5,7.3-7.9c64.5-6.1,129.5-6.1,194.1,0c4.1,0.4,7.3,3.8,7.3,8v136.4
	c0,4.3-3.4,7.8-7.7,8c-66.9,3.1-132.4,3.3-196.4,0C443.7,311.8,440.3,308.2,440.4,303.8z"/>
<path class="st4" d="M696.8,161.3V316c-7.2-0.6-14.3-1.3-21.5-2c-4.4-0.4-7.6-4.2-7.2-8.6l9.5-136.1c0.3-4.1,3.6-7.3,7.7-7.5
	C689.1,161.6,693,161.5,696.8,161.3z"/>
<path class="st4" d="M394.4,161.3V316c7.2-0.6,14.3-1.3,21.5-2c4.4-0.4,7.6-4.2,7.2-8.6l-9.5-136.1c-0.3-4.1-3.6-7.3-7.7-7.5
	C402.1,161.6,398.3,161.5,394.4,161.3z"/>
<path class="st3" d="M464.8,184.5h69.5c1.2,0,2.2,1,2.2,2.2v12.5c0,1.2-1,2.2-2.2,2.2h-69.5c-1.2,0-2.2-1-2.2-2.2v-12.5
	C462.5,185.5,463.5,184.5,464.8,184.5z"/>
<path class="st4" d="M465.2,214h164.5c1.2,0,2.2,1,2.2,2.2v3.5c0,1.2-1,2.2-2.2,2.2H465.2c-1.2,0-2.2-1-2.2-2.2v-3.5
	C463,215,464,214,465.2,214z"/>
<path class="st4" d="M465.2,235h164.5c1.2,0,2.2,1,2.2,2.2v3.5c0,1.2-1,2.2-2.2,2.2H465.2c-1.2,0-2.2-1-2.2-2.2v-3.5
	C463,236,464,235,465.2,235z"/>
<path class="st4" d="M465.2,256h107.5c1.2,0,2.2,1,2.2,2.2v3.5c0,1.2-1,2.2-2.2,2.2H465.2c-1.2,0-2.2-1-2.2-2.2v-3.5
	C463,257,464,256,465.2,256z"/>
<path class="st11" d="M599.5,488.1h-99c-3.4,0-6.1,2.7-6.2,6.1v99.1c0,3.4,2.8,6.2,6.2,6.2l0,0H550v-44.2h-13.3v-16.2H550v-11.9
	c0-14.4,10-22.2,22.8-22.2c6.2,0,12.8,0.5,14.3,0.7v14.9h-10.2c-7,0-8.3,3.3-8.3,8.2v10.3h16.6l-2.2,16.2h-14.5v44h31
	c3.4,0,6.1-2.8,6.1-6.2v-98.9C605.6,490.9,602.9,488.2,599.5,488.1z"/>
<circle class="st5" cx="759.5" cy="413.5" r="18.6"/>
<ellipse class="st5" cx="804.8" cy="454.8" rx="52.1" ry="67.5"/>
<path class="st6" d="M804.8,501.9c-26.1,0-47.7-24.9-51.5-57.3c-0.4,3.4-0.6,6.8-0.6,10.2c0,37.3,23.3,67.5,52.1,67.5
	s52.1-30.2,52.1-67.5c0-3.4-0.2-6.8-0.6-10.2C852.5,477,830.9,501.9,804.8,501.9z"/>
<path class="st5" d="M910.8,652.4c-1.1,4.6-5.9,8.3-11.3,10.8c-11.2,5.4-25.1,7-38.5,7.6c-3.4,0.2-6.9,0.1-10.3-0.2
	c-7-0.8-13.6-3.8-17.6-8.1c-1.1-0.7-1.4-2.2-0.7-3.3c0.2-0.3,0.5-0.6,0.8-0.8c7.2-7.9,19.1-12.7,31.1-16.1c9.1-2.6,25-9.5,35-8.5
	C908.8,634.7,912.2,646.6,910.8,652.4z"/>
<path class="st6" d="M910.8,652.4c-1.1,4.6-5.9,8.3-11.3,10.8c-11.2,5.4-25.1,7-38.5,7.6c-3.4,0.2-6.9,0.1-10.3-0.2
	c-7-0.8-13.6-3.8-17.6-8.1c-1.1-0.7-1.4-2.2-0.7-3.3c0.2-0.3,0.5-0.6,0.8-0.8c7.2-7.9,19.1-12.7,31.1-16.1c9.1-2.6,25-9.5,35-8.5
	C908.8,634.7,912.2,646.6,910.8,652.4z"/>
<path class="st5" d="M768,618.1c-3.4,6.7-4,14.5-1.7,21.7c2.4,7.1,6.8,13.4,12.7,18c14.5,11.7,34.5,13.2,53.2,13.1
	c16.3-0.2,32.6-1.3,48.8-3.4c5.4-0.7,10.8-1.5,15.8-3.7c6.1-2.6,11.4-7.5,13.6-13.7s0.6-13.9-4.5-18.1c-4.5-3.7-10.8-4.2-16.6-4.5
	l-33.3-2c3.3-3.3,7.7-5.2,11.7-7.6c5.3-3.2,8.8-8.6,12.7-13.4c5.8-7.2,12.6-13.6,19.3-19.9c1.1,6.2,5,11.3,9.6,15.6
	s10,7.7,14.8,11.8c11.6,9.9,20,23.3,32.2,32.4c8.4-2.2,16.3-6.1,23.1-11.5l-4.8-8.6c-0.4-0.9-1-1.7-1.8-2.2
	c-1.3-0.8-3.1-0.4-4.7-0.6c-4.2-0.6-6-5.4-7.6-9.3c-4.5-10.7-13.1-19-20.5-27.9c-5.4-6.6-10.2-13.7-14.4-21.2
	c-2.5-4.5-4.7-9.1-8.1-13s-8.1-6.9-13.2-6.9c-4.5,0-8.7,2.3-12.5,4.6c-11.8,7-23.2,14.8-34,23.2c-5.7,4.4-11.3,9.1-18,11.8
	c-2.8,1.1-5.8,1.9-8.5,3.3c-4.7,2.4-8.3,6.5-12.1,10.2C805.7,609,786.8,617.4,768,618.1z"/>
<path class="st12" d="M837.5,525.6c-0.2,4-1,7.9-2.5,11.6c-1.6,3.6-4.5,6.8-8.3,8c-2.6,0.7-5.4,0.8-8.1,0.3c-2.3-0.2-4.6-1-6.6-2.2
	c-3.1-2.2-4.7-6-5.2-9.7s-0.3-7.6-0.7-11.3c-0.4-3-0.9-6-1.7-9c-0.2-1-0.5-2-0.7-2.9s-0.5-2-0.7-2.9s-0.4-1.8-0.5-2.8
	c-0.1-0.8-0.2-1.6-0.3-2.4c-0.3-2.3-0.3-4.7-1.2-6.9c-0.7-1.5-1.5-2.8-2.4-4.1c-0.4-0.6-0.8-1.2-1.2-1.8c-1.1-1.6-1.6-3.5-1.4-5.4
	c0-0.3,0.1-0.6,0.2-0.9c0-0.1,0.1-0.2,0.1-0.3c0.8-0.2,1.5-0.8,1.8-1.7c0.2-0.9,0.1-1.7-0.2-2.6c-0.3-1.1-0.8-2.2-1.4-3.3
	c-0.4-0.7-1.7-1.9-1.7-2.7c0-1.6,3.1-2.9,4.3-3.5c3.8-1.9,8.1-2.8,12.4-2.5c2.7,0.2,5.7,1,7.2,3.3c1.4,2.1,1.2,4.8,1.8,7.2
	c0.1,0.4,0.2,0.7,0.4,1c0.3,0.3,0.7,0.4,1.1,0.5c0.7,0.1,1.3,0.2,2,0.1l0,0c0.2,0,0.4,0,0.5-0.1c1.1-0.2,2.1-0.6,2.9-1.3
	c0.6-0.2,1.1-0.3,1.7-0.4h0.1c2.3,7.2,2.6,14.8,4.4,22.1c0.9,3.6,2.2,7.2,2.4,11c0,0.2,0,0.3,0,0.5c0,1.2-0.1,2.4,0,3.6
	c0,0.5,0.1,1.1,0.2,1.6c0.2,0.8,0.5,1.7,0.8,2.5l0,0c0.1,0.3,0.2,0.5,0.2,0.8s0.1,0.4,0.1,0.6l0,0
	C837.6,521.5,837.7,523.6,837.5,525.6z"/>
<circle class="st12" cx="805.7" cy="452" r="26.7"/>
<path class="st12" d="M975.4,597.7c-0.8-7.3-3.4-14.3-7.5-20.3c0.7,4.1,1.4,8.2,2.1,12.4c-1.8,0.5-3.7-0.1-4.8-1.5
	c-1.1-1.4-2-3-2.5-4.7c-3-7.5-7-14.7-11.8-21.2c-17-1.4-33.8-8.5-48.8-16.7s-29-18.1-43.7-26.6c-2.6-1.6-5.2-2.9-8-4.1
	c-4.6-1.8-9.8-2.8-14.2-5l-0.9-0.5c-1-0.5-1.9-1.2-2.8-1.9c-0.5-0.4-0.9-0.8-1.3-1.2c-2.3-2.4-3.8-5.5-5.1-8.6
	c-2.4-5.2-3.2-11.5-5.5-16.7c1.1-1,2.3-1.9,3.6-2.5l0,0l0.6-0.3c0.9-0.4,1.9-0.8,2.9-1c0.6-0.2,1.1-0.3,1.7-0.4h0.1
	c2.6-0.4,5.4-0.2,7.9,0.6c3.7,1.3,6.9,3.8,10,6.2c5,3.8,10.1,7.3,14.6,11.6c2.6,2.5,4.9,5.2,7.7,7.4c2.3,1.8,4.7,3.4,7.3,4.8
	c15,8.9,30,17.9,45.1,26.8c5.1,3,10.2,6.1,15.2,9.3c7.5,4.9,14.8,10.2,22.1,15.4l12.9,9.3c1.4,0.9,2.6,2,3.7,3.4
	c0.9,1.5,1.4,3.2,1.6,4.9C978.2,583.7,977.6,590.9,975.4,597.7z"/>
<path class="st13" d="M844.1,545.7c-1.8,8.1-10,13-14.2,20.1c-5.3,8.8-3.2,19.1-1.2,29.2l-10.9,9.4c-2,1.7-4,3.5-6.2,5
	c-3.2,2.1-6.5,4-9.9,5.7l-9.7,5c-3,1.7-6.2,3-9.5,4c-6.4,1.6-13.1,0.5-19.4-1.4c-0.7-0.2-1.5-0.5-2.1-0.9c-0.4-0.2-0.7-0.5-1-0.9
	c-0.6-1.1-0.8-2.4-0.6-3.7c0.6-10.6,3.2-20.9,5.8-31.2c2.3-11.7,6.8-22.8,13.3-32.7c3.5-5.8,6.9-11.6,11.5-16.6
	c2-2.1,4.1-4.2,5.3-6.8c1.6-3.7,1-7.9,1.3-11.9c0.3-3,1-5.9,2.3-8.7l0,0c0.7-1.5,1.5-2.9,2.5-4.2l1.3,3.1l0.9,2l1.1,2.6
	c1,2.5,2.1,4.9,3.2,7.4c1.3,3,2.6,6.1,4.8,8.5s5.4,4.2,8.7,3.9c3.1-0.3,5.7-2.5,7.4-5.1c1.5-2.7,2.6-5.6,3.3-8.7
	c0.9-3.7,1-7.5,0.4-11.3c-1.1-7.2-4.2-14.6-6.4-21.3c-0.9-2.2-1.4-4.6-1.5-7c0-0.3,0-0.5,0.1-0.8c0-0.1,0-0.1,0-0.2
	c0.9-0.4,1.9-0.8,2.9-1c0.6-0.2,1.1-0.3,1.7-0.4c1.9,10.6,3.9,21.2,5.9,31.8c0,0.2,0.1,0.5,0.1,0.8c0.3,1.5,0.6,3,0.9,4.6
	s0.6,2.8,0.9,4.1l0,0c0.1,0.5,0.2,0.9,0.4,1.4l0,0c0.3,1.2,0.7,2.5,1.2,3.7C841.2,530.6,845.8,538,844.1,545.7z"/>
<path class="st13" d="M952.6,659.3c-0.1,1.6,0.2,3.1,0.9,4.5c1.7,3.1,5.7,3.8,9.2,4c20.3,1.7,40.7,1,60.8-1.9c1.1-0.1,2.2-0.4,3.1-1
	c2.9-2,1.1-6.9-2-8.5s-6.8-1.2-10.3-1.9s-6.6-2.4-9.6-4.2c-7-4-13.8-8.2-20.6-12.5c-4-2.6-8.8-5.3-13.3-3.8
	C958.5,638.4,952.5,646.1,952.6,659.3z"/>
<path class="st12" d="M803,506.7L803,506.7c0,0.2-0.1,0.4-0.1,0.6s-0.1,0.6-0.2,0.9c-0.6,2.9-1.2,5.7-2,8.6
	c-2.2,7.9-5.1,15.6-8,23.2c-7.7,20.4-15.5,40.9-23.3,61.3c-2,5.2-3.9,10.3-6.1,15.3l-2.3,5.1c-2.7,6.1-5.3,12.5-6.2,19
	c-0.6,4.3-1.2,8.7-0.3,13s3.5,8.5,7.5,10c2,0.8,4.8,1.8,4.3,3.9c-0.3,1.1-1.6,1.7-2.7,1.9c-3.1,0.5-6.2-0.4-8.6-2.5
	c-2.2-1.9-3.8-4.9-6.7-5.2c-2-0.2-3.8,1-5.7,1.8c-7.5,3.4-16.2,1-24-1.4c0.6-3.2,3.8-5.3,7-5.9s6.5-0.2,9.7-0.3c1,0,2.1-0.2,2.9-0.8
	c0.8-0.7,1.3-1.7,1.6-2.7c2.1-6.2,3.6-12.5,4.6-18.9c1-6.7,1.5-13.5,3-20.2c1.2-5.2,2.9-10.2,4.5-15.3c3.1-10.4,5.2-21.1,7.3-31.8
	c1-4.5,1.6-9,2-13.5c0.3-3.8,0.1-7.5,0.5-11.3c0.6-4.9,1.6-9.7,3-14.4c1.4-5.1,2.8-10.3,4.2-15.4c2-7.6,4.3-15.5,9.5-21.4
	c3.7-4.2,8.9-6.7,14.4-6.9c1,0,2.1,0.1,3.1,0.3l0.5,0.1c1.1,0.3,2.2,0.7,3.1,1.3c1.6-1,2.4-0.7,3.5,0.9c0.9,1.7,1.4,3.6,1.3,5.5
	C804.3,496.7,803.9,501.8,803,506.7z"/>
<path class="st13" d="M804.8,512.7L804.8,512.7l-0.4,0.4l-3.6,3.6l-1.8-7.5l-6.1-25.7c1,0,2.1,0.1,3.1,0.3c0-0.3,0.1-0.6,0.2-0.9
	l0.3,1l2.1,7l3.9,13.4l0.6,2.2l0,0L804.8,512.7z"/>
<path class="st5" d="M781.9,412.6h34c6.6,0,12,5.4,12,12v12.2c0,6.6-5.4,12-12,12h-34c-6.6,0-12-5.4-12-12v-12.2
	C769.9,418,775.3,412.6,781.9,412.6z"/>
<circle class="st5" cx="848.3" cy="413.5" r="18.6"/>
<path class="st6" d="M847.8,394.9h-0.7c10.2,0.4,18.2,9.1,17.8,19.3c-0.4,9.7-8.1,17.4-17.8,17.8h0.7c10.3,0.2,18.8-7.9,19-18.1
	c0.2-10.3-7.9-18.8-18.1-19C848.4,394.9,848.1,394.9,847.8,394.9L847.8,394.9z"/>
<path class="st6" d="M759.5,394.9h0.7c-10.2,0.4-18.2,9.1-17.8,19.3c0.4,9.7,8.1,17.4,17.8,17.8h-0.7c-10.3-0.2-18.4-8.7-18.1-19
	C741.5,403.1,749.5,395.1,759.5,394.9L759.5,394.9z"/>
<path class="st6" d="M822.4,445.2h-47.1c-3,0-5.4-2.4-5.4-5.4v3.6c0,3,2.4,5.4,5.4,5.4h47.1c3,0,5.4-2.4,5.4-5.4v-3.6
	C827.9,442.8,825.4,445.2,822.4,445.2z"/>
<path class="st14" d="M874.4,732.8l3-136.4c0.1-4.1,3.2-7.5,7.3-7.8c64.5-6.1,129.5-6.1,194.1,0c4.1,0.4,7.3,3.8,7.3,8V733
	c0,4.3-3.4,7.8-7.7,8c-66.9,3.1-132.4,3.3-196.4,0C877.7,740.7,874.3,737.2,874.4,732.8z"/>
<path class="st3" d="M898.8,613.5h69.5c1.2,0,2.2,1,2.2,2.2v12.5c0,1.2-1,2.2-2.2,2.2h-69.5c-1.2,0-2.2-1-2.2-2.2v-12.5
	C896.5,614.5,897.5,613.5,898.8,613.5z"/>
<path class="st4" d="M899.2,643h164.5c1.2,0,2.2,1,2.2,2.2v3.5c0,1.2-1,2.2-2.2,2.2H899.2c-1.2,0-2.2-1-2.2-2.2v-3.5
	C897,644,898,643,899.2,643z"/>
<path class="st4" d="M899.2,664h164.5c1.2,0,2.2,1,2.2,2.2v3.5c0,1.2-1,2.2-2.2,2.2H899.2c-1.2,0-2.2-1-2.2-2.2v-3.5
	C897,665,898,664,899.2,664z"/>
<path class="st4" d="M899.2,685h107.5c1.2,0,2.2,1,2.2,2.2v3.5c0,1.2-1,2.2-2.2,2.2H899.2c-1.2,0-2.2-1-2.2-2.2v-3.5
	C897,686,898,685,899.2,685z"/>
<path class="st12" d="M960.9,579.8c0,0,4.7,13.5,9,9.9l-3.4-17.6L960.9,579.8z"/>
</svg>
